<?xml version="1.0" encoding="UTF-8" standalone="no"?>
<svg
   width="60"
   height="60"
   data-name="Layer 1"
   viewBox="0 0 60 60"
   version="1.1"
   id="svg8"
   sodipodi:docname="adobe-illustrator.svg"
   inkscape:version="1.1.2 (0a00cf5339, 2022-02-04, custom)"
   xmlns:inkscape="http://www.inkscape.org/namespaces/inkscape"
   xmlns:sodipodi="http://sodipodi.sourceforge.net/DTD/sodipodi-0.dtd"
   xmlns="http://www.w3.org/2000/svg"
   xmlns:svg="http://www.w3.org/2000/svg">
  <defs
     id="defs12" />
  <sodipodi:namedview
     id="namedview10"
     pagecolor="#ffffff"
     bordercolor="#666666"
     borderopacity="1.0"
     inkscape:pageshadow="2"
     inkscape:pageopacity="0.0"
     inkscape:pagecheckerboard="0"
     showgrid="false"
     width="60px"
     inkscape:zoom="2.5429688"
     inkscape:cx="-5.3087557"
     inkscape:cy="27.526882"
     inkscape:window-width="1600"
     inkscape:window-height="837"
     inkscape:window-x="-8"
     inkscape:window-y="-8"
     inkscape:window-maximized="1"
     inkscape:current-layer="svg8"
     showguides="false" />
  <path
     id="rect486"
     style="fill:#ff9a00;fill-opacity:1"
     d="M 10.5 1 C 4.683 1 0 5.683 0 11.5 L 0 48.5 C 0 54.317 4.683 59 10.5 59 L 49.5 59 C 55.317 59 60 54.317 60 48.5 L 60 11.5 C 60 5.683 55.317 1 49.5 1 L 10.5 1 z M 43.023438 16 A 2.8875 2.8875 0 0 1 45.197266 16.824219 A 3.0175 3.0175 0 0 1 46 19.023438 A 2.8875 2.8875 0 0 1 45.175781 21.197266 A 3.0175 3.0175 0 0 1 42.976562 22 A 2.9525 2.9525 0 0 1 40.824219 21.197266 A 2.8875 2.8875 0 0 1 40 19.023438 A 2.9275 2.9275 0 0 1 40.847656 16.824219 A 3 3 0 0 1 43.023438 16 z M 22.720703 17 L 28.599609 17 C 28.769609 17 28.867031 17.070078 28.894531 17.205078 L 37.964844 43.630859 C 38.049844 43.880859 37.980859 44 37.755859 44 L 33.052734 44 A 0.435 0.435 0 0 1 32.632812 43.75 L 30.197266 37 L 21.25 37 L 18.939453 43.669922 C 18.912786 43.889922 18.775104 44 18.523438 44 L 14.322266 44 C 14.042266 44 13.944297 43.862891 14.029297 43.587891 L 22.134766 19.515625 A 7.375 7.375 0 0 0 22.470703 17.25 A 0.2225 0.2225 0 0 1 22.720703 17 z M 25.652344 21.164062 L 22.25 32.5 L 29.220703 32.5 C 29.053203 32.1325 25.918359 22.016562 25.693359 21.164062 L 25.652344 21.164062 z M 40.835938 24 L 45.164062 24 A 0.2975 0.2975 0 0 1 45.5 24.335938 L 45.5 43.664062 A 0.295 0.295 0 0 1 45.164062 44 L 40.875 44 A 0.3325 0.3325 0 0 1 40.5 43.625 L 40.5 24.335938 A 0.295 0.295 0 0 1 40.835938 24 z " />
</svg>
