<?xml version="1.0" encoding="UTF-8" standalone="no"?>
<!-- Created with Inkscape (http://www.inkscape.org/) -->

<svg
   width="60"
   height="60"
   viewBox="0 0 15.875 15.875"
   version="1.1"
   id="svg5"
   inkscape:version="1.1.2 (0a00cf5339, 2022-02-04, custom)"
   sodipodi:docname="ajax.svg"
   xmlns:inkscape="http://www.inkscape.org/namespaces/inkscape"
   xmlns:sodipodi="http://sodipodi.sourceforge.net/DTD/sodipodi-0.dtd"
   xmlns="http://www.w3.org/2000/svg"
   xmlns:svg="http://www.w3.org/2000/svg">
  <sodipodi:namedview
     id="namedview7"
     pagecolor="#ffffff"
     bordercolor="#666666"
     borderopacity="1.0"
     inkscape:pageshadow="2"
     inkscape:pageopacity="0.0"
     inkscape:pagecheckerboard="0"
     inkscape:document-units="mm"
     showgrid="false"
     units="px"
     inkscape:zoom="3.280666"
     inkscape:cx="-11.735422"
     inkscape:cy="-10.668566"
     inkscape:window-width="1920"
     inkscape:window-height="1017"
     inkscape:window-x="1592"
     inkscape:window-y="-8"
     inkscape:window-maximized="1"
     inkscape:current-layer="layer1" />
  <defs
     id="defs2" />
  <g
     inkscape:label="Calque 1"
     inkscape:groupmode="layer"
     id="layer1">
    <path
       id="rect8173"
       style="fill:#0783cb;fill-opacity:1;stroke:none;stroke-width:0.998653"
       d="M 0 0 L 0 60 L 60 60 L 60 0 L 0 0 z M 22.015625 35.662109 L 23.324219 35.662109 L 24.632812 35.662109 C 26.88223 35.662109 28.560547 36.694935 28.560547 38.708984 L 28.560547 39.767578 L 25.8125 39.767578 L 25.8125 38.708984 C 25.852398 38.150778 25.429702 37.648438 24.632812 37.648438 L 23.324219 37.648438 L 22.015625 37.648438 C 21.218734 37.648438 20.797989 38.150778 20.837891 38.708984 L 20.837891 46.787109 L 22.212891 45.396484 L 23.585938 46.787109 L 19.462891 50.496094 L 15.339844 46.787109 L 16.714844 45.396484 L 18.089844 46.787109 L 18.089844 38.708984 C 18.089844 36.694935 19.766207 35.662109 22.015625 35.662109 z M 27.185547 40.828125 L 31.308594 44.537109 L 29.933594 45.927734 L 28.560547 44.537109 L 28.560547 52.615234 C 28.560547 54.629288 26.88223 55.662109 24.632812 55.662109 L 23.324219 55.662109 L 22.015625 55.662109 C 19.766207 55.662109 18.089844 54.629288 18.089844 52.615234 L 18.089844 51.556641 L 20.837891 51.556641 L 20.837891 52.615234 C 20.797992 53.17344 21.218734 53.675781 22.015625 53.675781 L 23.324219 53.675781 L 24.632812 53.675781 C 25.429702 53.675781 25.8524 53.17344 25.8125 52.615234 L 25.8125 44.537109 L 24.4375 45.927734 L 23.0625 44.537109 L 27.185547 40.828125 z M 9.9746094 44.734375 L 11.544922 44.734375 L 13.115234 44.734375 L 18.089844 55 L 14.947266 55 L 14 52.880859 L 11.544922 52.880859 L 9.0878906 52.880859 L 8.140625 55 L 5 55 L 9.9746094 44.734375 z M 33.533203 44.734375 L 35.105469 44.734375 L 36.675781 44.734375 L 41.648438 55 L 38.507812 55 L 37.560547 52.880859 L 35.105469 52.880859 L 32.648438 52.880859 L 31.701172 55 L 28.560547 55 L 33.533203 44.734375 z M 41.910156 44.734375 L 45.837891 44.734375 L 48.455078 47.667969 L 51.074219 44.734375 L 55 44.734375 L 50.417969 49.867188 L 55 55 L 51.074219 55 L 48.455078 52.066406 L 45.837891 55 L 41.910156 55 L 46.492188 49.867188 L 41.910156 44.734375 z M 11.544922 47.384766 L 9.9765625 50.894531 L 11.544922 50.894531 L 13.113281 50.894531 L 11.544922 47.384766 z M 35.105469 47.384766 L 33.537109 50.894531 L 35.105469 50.894531 L 36.673828 50.894531 L 35.105469 47.384766 z "
       transform="scale(0.26458333)" />
  </g>
</svg>
