<?xml version="1.0" encoding="UTF-8" standalone="no"?>
<svg
   viewBox="0 0 60 60"
   version="1.1"
   id="svg868"
   sodipodi:docname="css.svg"
   width="60"
   height="60"
   inkscape:version="1.1.2 (0a00cf5339, 2022-02-04, custom)"
   xmlns:inkscape="http://www.inkscape.org/namespaces/inkscape"
   xmlns:sodipodi="http://sodipodi.sourceforge.net/DTD/sodipodi-0.dtd"
   xmlns="http://www.w3.org/2000/svg"
   xmlns:svg="http://www.w3.org/2000/svg">
  <path
     id="path856"
     style="stroke-width:0.479293;fill:#1572b6;fill-opacity:1"
     d="M 3.5 0 L 8.3222656 54.001953 L 29.96875 60 L 51.671875 53.994141 L 56.5 0 L 3.5 0 z M 13.402344 10.574219 L 30.023438 10.574219 L 46.638672 10.574219 L 46.478516 12.351562 L 44.873047 30.322266 L 43.71875 43.195312 L 43.619141 44.314453 L 30.039062 48.072266 L 30.03125 48.074219 L 30.017578 48.078125 L 30.009766 48.080078 L 16.417969 44.314453 L 15.490234 33.916016 L 22.148438 33.916016 L 22.621094 39.197266 L 30.009766 41.189453 L 30.017578 41.1875 L 30.017578 41.185547 L 37.417969 39.193359 L 38.191406 30.603516 L 30 30.603516 L 22.705078 30.603516 L 22.572266 29.115234 L 22.269531 25.757812 L 22.111328 23.980469 L 30 23.980469 L 38.78125 23.980469 L 39.386719 17.197266 L 30.023438 17.197266 L 13.996094 17.197266 L 13.863281 15.708984 L 13.560547 12.351562 L 13.402344 10.574219 z " />
  <defs
     id="defs872" />
  <sodipodi:namedview
     id="namedview870"
     pagecolor="#ffffff"
     bordercolor="#666666"
     borderopacity="1.0"
     inkscape:pageshadow="2"
     inkscape:pageopacity="0.0"
     inkscape:pagecheckerboard="0"
     showgrid="false"
     width="60px"
     inkscape:zoom="5.0859375"
     inkscape:cx="42.371736"
     inkscape:cy="31.754224"
     inkscape:window-width="1282"
     inkscape:window-height="860"
     inkscape:window-x="0"
     inkscape:window-y="0"
     inkscape:window-maximized="0"
     inkscape:current-layer="svg868" />
</svg>
