<?xml version="1.0" encoding="UTF-8" standalone="no"?>
<svg
   viewBox="0 0 60 60"
   version="1.1"
   id="svg4"
   sodipodi:docname="git.svg"
   width="60"
   height="60"
   inkscape:version="1.1.2 (0a00cf5339, 2022-02-04, custom)"
   xmlns:inkscape="http://www.inkscape.org/namespaces/inkscape"
   xmlns:sodipodi="http://sodipodi.sourceforge.net/DTD/sodipodi-0.dtd"
   xmlns="http://www.w3.org/2000/svg"
   xmlns:svg="http://www.w3.org/2000/svg">
  <defs
     id="defs8" />
  <sodipodi:namedview
     id="namedview6"
     pagecolor="#ffffff"
     bordercolor="#666666"
     borderopacity="1.0"
     inkscape:pageshadow="2"
     inkscape:pageopacity="0.0"
     inkscape:pagecheckerboard="0"
     showgrid="false"
     inkscape:zoom="5.0859375"
     inkscape:cx="64"
     inkscape:cy="63.90169"
     inkscape:window-width="1920"
     inkscape:window-height="1017"
     inkscape:window-x="1592"
     inkscape:window-y="-8"
     inkscape:window-maximized="1"
     inkscape:current-layer="svg4" />
  <path
     fill="#f34f29"
     d="M 58.869563,27.327582 32.678074,1.1314701 c -1.507328,-1.50862681 -3.953648,-1.50862681 -5.463352,0 l -5.437691,5.4403727 6.898925,6.9005182 c 1.603794,-0.541376 3.44186,-0.17824 4.719667,1.099862 1.284461,1.286183 1.645136,3.140359 1.089629,4.74975 l 6.648971,6.651457 c 1.608546,-0.554684 3.465145,-0.196302 4.74913,1.090831 1.796246,1.795238 1.796246,4.705547 0,6.501735 -1.796249,1.796664 -4.704936,1.796664 -6.502135,0 -1.350513,-1.351775 -1.684577,-3.336185 -1.000292,-5.000712 l -6.200384,-6.202292 -9.51e-4,16.322544 c 0.438133,0.216266 0.85108,0.505252 1.216032,0.868863 1.795774,1.795238 1.795774,4.704596 0,6.503636 -1.795773,1.795237 -4.706361,1.795237 -6.500234,0 -1.795298,-1.798565 -1.942609,-4.707923 -0.147786,-6.503636 0.443835,-0.443462 0.881492,-0.778554 1.35669,-1.002899 V 22.077808 C 27.629095,21.853462 27.191913,21.520747 26.747127,21.074434 25.387586,19.715053 25.133355,17.71876 25.830946,16.047578 L 19.067452,9.2444983 1.1268246,27.206378 c -1.50875381,1.510054 -1.49924985,3.956937 0.0095,5.46604 L 27.332096,58.86853 c 1.507804,1.508627 3.956024,1.508627 5.466203,0 L 58.867662,32.794097 c 1.508754,-1.509578 1.510179,-3.957888 0.0019,-5.466515 z"
     id="path2"
     style="stroke-width:0.475253" />
</svg>
