<?xml version="1.0" encoding="UTF-8" standalone="no"?>
<svg
   enable-background="new 0 0 128 128"
   viewBox="0 0 60 60"
   version="1.1"
   id="svg4"
   sodipodi:docname="inkscape.svg"
   width="60"
   height="60"
   inkscape:version="1.1.2 (0a00cf5339, 2022-02-04, custom)"
   xmlns:inkscape="http://www.inkscape.org/namespaces/inkscape"
   xmlns:sodipodi="http://sodipodi.sourceforge.net/DTD/sodipodi-0.dtd"
   xmlns="http://www.w3.org/2000/svg"
   xmlns:svg="http://www.w3.org/2000/svg">
  <defs
     id="defs8" />
  <sodipodi:namedview
     id="namedview6"
     pagecolor="#ffffff"
     bordercolor="#666666"
     borderopacity="1.0"
     inkscape:pageshadow="2"
     inkscape:pageopacity="0.0"
     inkscape:pagecheckerboard="0"
     showgrid="false"
     width="60px"
     inkscape:zoom="7.1926018"
     inkscape:cx="26.485548"
     inkscape:cy="29.196667"
     inkscape:window-width="1600"
     inkscape:window-height="837"
     inkscape:window-x="-8"
     inkscape:window-y="-8"
     inkscape:window-maximized="1"
     inkscape:current-layer="svg4" />
  <path
     id="path16"
     style="stroke-width:0.49502"
     d="M 29.503906 0 C 27.653385 0 25.820137 0.68455957 24.492188 2.0546875 L 2.3105469 25.023438 C -5.1653145 34.439954 7.4261313 33.344723 12.787109 36.035156 C 14.705258 38.028069 5.3607931 39.522711 7.328125 41.515625 C 9.2462736 43.508538 19.033023 45.351795 20.951172 47.394531 L 18.935547 53.521484 C 20.853695 55.514397 25.327947 53.62234 26.164062 58.255859 C 26.754262 61.544166 34.23153 59.649418 37.871094 56.958984 C 39.789243 54.966072 34.181461 55.165783 36.099609 53.123047 C 40.919572 48.140763 45.396482 51.330934 47.019531 46.298828 C 47.855647 43.807686 39.935368 42.511486 41.853516 40.46875 C 47.460412 37.230267 66.69266 35.088318 57.59375 25.871094 L 34.625 2.0546875 C 33.223276 0.68455957 31.354428 0 29.503906 0 z M 29.681641 2.2480469 C 31.00959 2.241819 32.337801 2.7276736 33.296875 3.6992188 L 42.050781 12.716797 C 42.886897 13.563785 42.886364 15.208801 42.394531 15.707031 L 38.066406 12.169922 L 37.230469 17.400391 L 33.591797 15.457031 L 27.787109 19.193359 L 25.869141 11.472656 L 22.673828 17.052734 L 17.902344 17.052734 C 15.935012 17.052734 15.737213 14.410809 17.507812 12.617188 C 20.606361 9.2292334 24.148257 5.7429134 26.066406 3.75 C 27.02548 2.7535433 28.353692 2.2542748 29.681641 2.2480469 z M 19.130859 37.279297 C 19.721058 37.628057 28.67347 39.472511 30.886719 39.871094 C 31.673652 40.020562 31.132813 40.817183 30.050781 41.365234 C 27.689983 42.012931 16.278228 37.279297 19.130859 37.279297 z M 54.146484 43.585938 C 52.294872 43.587098 50.427125 44.523674 49.919922 46.347656 C 49.919922 47.493581 58.183594 48.240037 58.183594 46.097656 C 57.611838 44.40835 55.885877 43.584847 54.146484 43.585938 z M 15.990234 48.509766 C 13.396116 48.489414 10.362763 50.407397 12.589844 52.376953 C 14.557176 54.070929 17.606889 51.928605 18.492188 49.537109 C 17.952708 48.822463 17.005324 48.517729 15.990234 48.509766 z M 48.886719 48.689453 C 46.37837 50.981304 49.183411 53.32281 51.642578 51.828125 C 52.183594 51.23025 51.640985 49.237504 48.886719 48.689453 z " />
</svg>
