<?xml version="1.0" encoding="UTF-8" standalone="no"?>
<svg
   viewBox="0 0 60 60"
   version="1.1"
   id="svg4"
   sodipodi:docname="javascript.svg"
   width="60"
   height="60"
   inkscape:version="1.1.2 (0a00cf5339, 2022-02-04, custom)"
   xmlns:inkscape="http://www.inkscape.org/namespaces/inkscape"
   xmlns:sodipodi="http://sodipodi.sourceforge.net/DTD/sodipodi-0.dtd"
   xmlns="http://www.w3.org/2000/svg"
   xmlns:svg="http://www.w3.org/2000/svg">
  <defs
     id="defs8" />
  <sodipodi:namedview
     id="namedview6"
     pagecolor="#ffffff"
     bordercolor="#666666"
     borderopacity="1.0"
     inkscape:pageshadow="2"
     inkscape:pageopacity="0.0"
     inkscape:pagecheckerboard="0"
     showgrid="false"
     width="60px"
     inkscape:zoom="7.1926018"
     inkscape:cx="22.036532"
     inkscape:cy="33.228588"
     inkscape:window-width="1600"
     inkscape:window-height="837"
     inkscape:window-x="-8"
     inkscape:window-y="-8"
     inkscape:window-maximized="1"
     inkscape:current-layer="svg4" />
  <path
     fill="#f0db4f"
     d="M 0,0 V 60 H 60 V 0 Z m 31.73712,51.12624 c -0.8856,1.79952 -2.57616,2.98176 -4.53504,3.55248 -3.01008,0.6912 -5.88912,0.29712 -8.03088,-0.98832 -1.43328,-0.87936 -2.55264,-2.23296 -3.31248,-3.79248 l 4.5696,-2.7984 c 0.03984,0.0168 0.15984,0.23376 0.32016,0.51408 0.58272,0.97632 1.08528,1.66752 2.07312,2.1528 0.97056,0.3312 3.10128,0.54288 3.924,-1.16496 0.50256,-0.8688 0.34272,-3.66144 0.34272,-6.7512 C 27.08784,36.99504 27.1104,32.16 27.1104,27.36 h 5.62032 c 0,5.28 0.0288,10.28064 0,15.43296 0.012,3.1584 0.28608,5.97408 -0.9936,8.33328 z M 55.05264,49.5384 c -1.9536,6.68256 -12.84576,6.89952 -17.1984,2.48448 -0.91968,-1.0392 -1.49616,-1.58208 -2.0448,-2.7816 2.31312,-1.33056 2.31312,-1.33056 4.56384,-2.6328 1.22256,1.8792 2.35296,2.91264 4.38672,3.33552 2.75904,0.33696 5.53488,-0.61104 4.91232,-3.54144 -0.63984,-2.39328 -5.6496,-2.97552 -9.05904,-5.53488 -3.46128,-2.32464 -4.27248,-7.97328 -1.428,-11.2008 0.948,-1.19376 2.56464,-2.08464 4.26096,-2.5128 l 1.77024,-0.22896 c 3.39888,-0.06864 5.52336,0.82896 7.08288,2.5704 0.43392,0.43968 0.78816,0.91392 1.45056,1.9416 -1.81056,1.15392 -1.8048,1.14288 -4.39824,2.82192 -0.55392,-1.19328 -1.47312,-1.94208 -2.44464,-2.26752 -1.50816,-0.45696 -3.40992,0.03984 -3.80448,1.63344 -0.1368,0.49104 -0.10848,0.948 0.10896,1.7592 0.61104,1.39344 2.6616,1.9992 4.50096,2.84448 5.29488,2.14752 7.08288,4.45008 7.52256,7.19088 0.42336,2.35968 -0.10224,3.8904 -0.1824,4.11888 z"
     id="path2"
     style="stroke-width:0.48" />
</svg>
