<?xml version="1.0" encoding="UTF-8" standalone="no"?>
<svg
   viewBox="-58.57 -59.93 21.79848 21.579432"
   width="60"
   height="60"
   version="1.1"
   id="svg23"
   sodipodi:docname="laragon.svg"
   inkscape:version="1.1.2 (0a00cf5339, 2022-02-04, custom)"
   xmlns:inkscape="http://www.inkscape.org/namespaces/inkscape"
   xmlns:sodipodi="http://sodipodi.sourceforge.net/DTD/sodipodi-0.dtd"
   xmlns="http://www.w3.org/2000/svg"
   xmlns:svg="http://www.w3.org/2000/svg">
  <defs
     id="defs27" />
  <sodipodi:namedview
     id="namedview25"
     pagecolor="#ffffff"
     bordercolor="#666666"
     borderopacity="1.0"
     inkscape:pageshadow="2"
     inkscape:pageopacity="0.0"
     inkscape:pagecheckerboard="0"
     showgrid="false"
     inkscape:zoom="12.999493"
     inkscape:cx="29.808854"
     inkscape:cy="30.231948"
     inkscape:window-width="1920"
     inkscape:window-height="1017"
     inkscape:window-x="1592"
     inkscape:window-y="-8"
     inkscape:window-maximized="1"
     inkscape:current-layer="svg23" />
  <linearGradient
     id="a"
     gradientUnits="userSpaceOnUse"
     x1="400.117"
     x2="400.117"
     y1="22.292999"
     y2="715"
     gradientTransform="matrix(0.02726022,0,0,0.02719562,-58.577657,-59.135928)">
    <stop
       offset=".018"
       stop-color="#3bb6ff"
       id="stop2" />
    <stop
       offset=".302"
       stop-color="#39afff"
       id="stop4" />
    <stop
       offset=".552"
       stop-color="#36a3ff"
       id="stop6" />
    <stop
       offset=".717"
       stop-color="#359fff"
       id="stop8" />
    <stop
       offset=".832"
       stop-color="#3398ff"
       id="stop10" />
    <stop
       offset=".964"
       stop-color="#3297ff"
       id="stop12" />
  </linearGradient>
  <path
     id="path15"
     style="fill:url(#a);stroke-width:0.0272279"
     d="m -47.121437,-59.131001 c -1.800433,0.02042 -2.941234,1.3075 -2.941234,1.3075 -6.219146,0.07506 -7.788954,5.448379 -7.826023,5.559881 l -0.225649,0.669677 c -2.060055,7.954719 3.533029,11.071625 3.533029,11.071625 0.17092,0.08349 0.340601,-0.05805 0.340601,-0.05805 0.454428,-0.282019 0.227067,-0.480668 0.227067,-0.480668 -1.303856,-1.584416 -1.445426,-5.331228 -1.445426,-5.331228 0.03055,0.02233 0.07067,0.04964 0.117081,0.07999 -0.621218,-0.480101 -1.260269,-1.225007 -1.128241,-2.216449 0,0 0.07601,-0.461227 0.529351,-0.178392 0,0 1.078136,0.584597 1.928655,0.753211 -0.0011,0 0.431617,0.03984 0.453425,0.161402 0,0 0.34815,1.607256 -0.722358,2.113094 0.664657,0.38174 1.345374,0.758874 1.345374,0.758874 0.112586,1.14412 0.73726,4.820829 0.73726,4.820828 0.05725,0.721501 0.82241,0.862936 0.82241,0.862936 0.438889,0.15583 3.741647,0.05592 3.741647,0.05592 0.921394,-0.03998 0.964327,-0.861519 0.964327,-0.861519 0.01363,-0.494144 0.02767,-3.281137 0.02767,-3.281137 0.08642,-0.522158 0.695394,-0.452351 0.695394,-0.452351 0.637889,-0.02719 0.624436,0.409877 0.624436,0.409877 -0.01527,0.466676 0.04187,3.16858 0.04187,3.16858 0.02808,0.776706 0.709586,1.019382 0.709586,1.019382 0.443524,0 0.751689,-0.0038 1.239647,0 0.228986,0.0016 1.33686,0 1.33686,0 0.499953,-0.278483 1.251,-0.877801 1.251,-0.877801 5.329373,-4.45002 3.755129,-10.783508 3.755129,-10.783508 -0.755108,-3.846548 -5.420527,-4.552533 -5.420527,-4.552533 -0.528848,-1.640982 -1.492259,-2.431651 -1.492259,-2.431651 -1.165861,-0.96553 -2.22997,-1.297363 -3.133532,-1.3075 -0.02891,-3.24e-4 -0.05799,-3.24e-4 -0.08657,0 z m 4.76345,3.875777 c 0,0 1.676491,2.792087 -1.567475,7.124349 8.17e-4,8.17e-4 -2.750191,3.863144 -7.702556,0.99319 0,0 4.879418,2.774079 7.8317,-1.680565 0,0 2.39053,-3.114485 1.438331,-6.436974 z m -10.251388,3.274766 c 0.04124,-2e-5 0.08372,0.0012 0.127016,0.0042 0,0 1.17807,0.03187 1.219778,1.647293 0,0.0011 -0.927939,-2.415995 -2.972455,-0.180515 0,0 0.32296,-1.376337 1.505031,-1.466778 0.0394,-0.003 0.07939,-0.0042 0.12063,-0.0042 z" />
</svg>
