<?xml version="1.0" encoding="UTF-8" standalone="no"?>
<svg
   width="60"
   height="60"
   preserveAspectRatio="xMinYMin meet"
   viewBox="0 0 6.144 6.1420932"
   version="1.1"
   id="svg8"
   sodipodi:docname="php.svg"
   inkscape:version="1.1.2 (0a00cf5339, 2022-02-04, custom)"
   xmlns:inkscape="http://www.inkscape.org/namespaces/inkscape"
   xmlns:sodipodi="http://sodipodi.sourceforge.net/DTD/sodipodi-0.dtd"
   xmlns="http://www.w3.org/2000/svg"
   xmlns:svg="http://www.w3.org/2000/svg">
  <defs
     id="defs12" />
  <sodipodi:namedview
     id="namedview10"
     pagecolor="#ffffff"
     bordercolor="#666666"
     borderopacity="1.0"
     inkscape:pageshadow="2"
     inkscape:pageopacity="0.0"
     inkscape:pagecheckerboard="0"
     showgrid="false"
     inkscape:zoom="9.6754835"
     inkscape:cx="27.440489"
     inkscape:cy="29.765954"
     inkscape:window-width="1600"
     inkscape:window-height="837"
     inkscape:window-x="-8"
     inkscape:window-y="-8"
     inkscape:window-maximized="1"
     inkscape:current-layer="g6" />
  <g
     fill-rule="evenodd"
     id="g6">
    <path
       id="ellipse2"
       style="fill:#8993be;fill-opacity:1;stroke-width:0.0239104"
       d="M 3.072,1.5872 A 3.072,1.5871999 0 0 0 0,3.1744 3.072,1.5871999 0 0 0 3.072,4.7616 3.072,1.5871999 0 0 0 6.144,3.1744 3.072,1.5871999 0 0 0 3.072,1.5872 Z M 2.7412559,1.9840119 H 3.141048 L 3.0568801,2.4225584 H 3.4356 c 0.336672,0.020891 0.462912,0.1879485 0.4208401,0.3968119 L 3.709152,3.6756198 H 3.2883359 L 3.435624,2.9029109 C 3.4566481,2.7984792 3.4566481,2.7358297 3.309384,2.7358297 H 2.9937601 L 2.8044,3.6756198 H 2.404608 Z M 1.199352,2.4225584 H 1.97784 c 0.336648,0.020891 0.5049841,0.1879485 0.5049841,0.4803525 0,0.5012198 -0.3997681,0.7936 -0.7574881,0.7727089 H 1.34664 L 1.262472,4.11419 H 0.86268 Z m 2.8194959,0 H 4.79736 c 0.3366721,0.020891 0.5050081,0.1879485 0.5050081,0.4803525 0,0.5012198 -0.3997921,0.7936 -0.7574881,0.7727089 H 4.1661361 L 4.0819679,4.11419 H 3.6822 Z M 1.536,2.7358297 1.430784,3.3623723 h 2.46e-5 0.25248 c 0.18936,-0.020891 0.357696,-0.083541 0.37872,-0.4385941 0,-0.125299 -0.105192,-0.1879485 -0.25248,-0.1879485 z m 2.8194961,0 -0.105216,0.6265426 h 2.46e-5 0.2525041 c 0.1893598,-0.020891 0.3576958,-0.083541 0.3787199,-0.4385941 0,-0.125299 -0.1051919,-0.1879485 -0.2524798,-0.1879485 z" />
  </g>
</svg>
