<?xml version="1.0" encoding="UTF-8" standalone="no"?>
<!-- Created with Inkscape (http://www.inkscape.org/) -->

<svg
   width="360"
   height="360"
   viewBox="0 0 95.249998 95.250003"
   version="1.1"
   id="svg8570"
   inkscape:version="1.1.2 (0a00cf5339, 2022-02-04, custom)"
   sodipodi:docname="fond-obeles.svg"
   xmlns:inkscape="http://www.inkscape.org/namespaces/inkscape"
   xmlns:sodipodi="http://sodipodi.sourceforge.net/DTD/sodipodi-0.dtd"
   xmlns="http://www.w3.org/2000/svg"
   xmlns:svg="http://www.w3.org/2000/svg">
  <sodipodi:namedview
     id="namedview8572"
     pagecolor="#ffffff"
     bordercolor="#666666"
     borderopacity="1.0"
     inkscape:pageshadow="2"
     inkscape:pageopacity="0.0"
     inkscape:pagecheckerboard="0"
     inkscape:document-units="mm"
     showgrid="false"
     units="px"
     inkscape:zoom="1.640333"
     inkscape:cx="171.6115"
     inkscape:cy="129.24205"
     inkscape:window-width="1600"
     inkscape:window-height="837"
     inkscape:window-x="-8"
     inkscape:window-y="-8"
     inkscape:window-maximized="1"
     inkscape:current-layer="layer1" />
  <defs
     id="defs8567" />
  <g
     inkscape:label="Calque 1"
     inkscape:groupmode="layer"
     id="layer1">
    <path
       style="fill:#d3cfcb;fill-opacity:0.1;stroke:none;stroke-width:0.264583px;stroke-linecap:butt;stroke-linejoin:miter;stroke-opacity:1"
       d="M 38.364584,-9.5367432e-7 31.75,15.874999 h 1.322917 L 39.6875,-9.5367432e-7 Z"
       id="path9530" />
    <path
       style="fill:#d3cfcb;fill-opacity:0.1;stroke:none;stroke-width:0.264583px;stroke-linecap:butt;stroke-linejoin:miter;stroke-opacity:1"
       d="M 30.42708,63.5 23.8125,79.375001 h 1.32291 L 31.75,63.5 Z"
       id="path9530-1" />
    <path
       style="fill:#d3cfcb;fill-opacity:0.1;stroke:none;stroke-width:0.264583px;stroke-linecap:butt;stroke-linejoin:miter;stroke-opacity:1"
       d="M 63.5,47.625 70.114584,63.5 H 71.4375 L 64.822917,47.625 Z"
       id="path9783" />
    <path
       style="fill:#d3cfcb;fill-opacity:0.1;stroke:none;stroke-width:0.264583px;stroke-linecap:butt;stroke-linejoin:miter;stroke-opacity:1"
       d="M 2.0109131e-6,31.750001 6.614586,47.625001 h 1.322916 l -6.614583,-15.875 z"
       id="path9783-4" />
    <path
       id="path10866"
       style="fill:#d3cfcb;fill-opacity:0.1;stroke:none;stroke-width:0.264583px;stroke-linecap:butt;stroke-linejoin:miter;stroke-opacity:1"
       d="m 19.182291,15.875 v 3.307292 H 15.875 v 1.322916 h 3.307291 v 6.614583 H 15.875 v 1.322917 h 3.307291 V 31.75 h 1.322917 V 28.442708 H 23.8125 V 27.119791 H 20.505208 V 20.505208 H 23.8125 V 19.182292 H 20.505208 V 15.875 Z" />
    <path
       id="path10866-2"
       style="fill:#d3cfcb;fill-opacity:0.1;stroke:none;stroke-width:0.264583px;stroke-linecap:butt;stroke-linejoin:miter;stroke-opacity:1"
       d="m 58.86979,63.5 v 3.307292 H 55.5625 v 1.322916 h 3.30729 v 6.614583 H 55.5625 v 1.322917 h 3.30729 V 79.375 h 1.32292 V 76.067708 H 63.5 V 74.744791 H 60.19271 V 68.130208 H 63.5 V 66.807292 H 60.19271 V 63.5 Z" />
    <path
       id="path11044"
       style="fill:#d3cfcb;fill-opacity:0.1;stroke:none;stroke-width:0.264583px;stroke-linecap:butt;stroke-linejoin:miter;stroke-opacity:1"
       d="M 58.869791,-2.8610229e-6 V 3.3072891 H 55.5625 v 1.322917 h 3.307291 V 15.874997 h 1.322917 V 4.6302061 H 63.5 V 3.3072891 H 60.192708 V -2.8610229e-6 Z" />
    <path
       id="path11044-1"
       style="fill:#d3cfcb;fill-opacity:0.1;stroke:none;stroke-width:0.264583px;stroke-linecap:butt;stroke-linejoin:miter;stroke-opacity:1"
       d="m 3.3072931,79.375003 v 3.307292 H 2.1310425e-6 v 1.322917 H 3.3072931 v 11.244791 h 1.322917 V 84.005212 h 3.307292 v -1.322917 h -3.307292 v -3.307292 z" />
    <path
       id="path11555"
       style="fill:#d3cfcb;fill-opacity:0.1;stroke:none;stroke-width:0.264583px;stroke-linecap:butt;stroke-linejoin:miter;stroke-opacity:1"
       d="m 82.68229,7.9374992 v 1.3229166 h 1.32292 V 7.9374992 Z M 79.375,11.244791 v 1.322917 h 7.9375 v -1.322917 z m 3.30729,3.307293 v 1.322917 h 1.32292 v -1.322917 z" />
    <path
       style="fill:#d3cfcb;fill-opacity:0.1;stroke:none;stroke-width:0.264583px;stroke-linecap:butt;stroke-linejoin:miter;stroke-opacity:1"
       d="M 1.6689301e-6,11.244791 H 7.9375017 v 1.322917 H 1.6689301e-6 Z"
       id="path11711" />
    <path
       style="fill:#d3cfcb;fill-opacity:0.1;stroke:none;stroke-width:0.264583px;stroke-linecap:butt;stroke-linejoin:miter;stroke-opacity:1"
       d="m 79.375001,42.994792 h 7.9375 v 1.322917 h -7.9375 z"
       id="path11711-7" />
    <path
       style="fill:#d3cfcb;fill-opacity:0.1;stroke:none;stroke-width:0.264583px;stroke-linecap:butt;stroke-linejoin:miter;stroke-opacity:1"
       d="M 7.937499,58.869793 H 23.8125 V 60.19271 H 7.937499 Z"
       id="path11934" />
    <path
       style="fill:#d3cfcb;fill-opacity:0.1;stroke:none;stroke-width:0.264583px;stroke-linecap:butt;stroke-linejoin:miter;stroke-opacity:1"
       d="m 39.6875,90.619794 h 15.875001 v 1.322917 H 39.6875 Z"
       id="path11934-6" />
    <path
       style="fill:#d3cfcb;fill-opacity:0.1;stroke:none;stroke-width:0.264583px;stroke-linecap:butt;stroke-linejoin:miter;stroke-opacity:1"
       d="m 71.437502,74.744796 23.812498,-2e-6 v 1.322917 l -23.812498,2e-6 z"
       id="path12085" />
    <path
       style="fill:#d3cfcb;fill-opacity:0.1;stroke:none;stroke-width:0.264583px;stroke-linecap:butt;stroke-linejoin:miter;stroke-opacity:1"
       d="m 47.625,27.119794 23.812498,-2e-6 v 1.322917 l -23.812498,2e-6 z"
       id="path12085-2" />
    <path
       id="path11555-1"
       style="fill:#d3cfcb;fill-opacity:0.1;stroke:none;stroke-width:0.264583px;stroke-linecap:butt;stroke-linejoin:miter;stroke-opacity:1"
       d="m 42.994788,39.687501 v 1.322916 h 1.322916 v -1.322916 z m -3.307292,3.307291 v 1.322917 h 7.9375 v -1.322917 z m 3.307292,3.307292 v 1.322917 h 1.322916 v -1.322917 z" />
    <path
       style="fill:#d3cfcb;fill-opacity:0.1;stroke:none"
       id="path22222-9"
       sodipodi:type="arc"
       sodipodi:cx="11.90625"
       sodipodi:cy="7.9375"
       sodipodi:rx="1.3229166"
       sodipodi:ry="1.3229166"
       sodipodi:start="0.013480801"
       sodipodi:end="0"
       sodipodi:open="true"
       sodipodi:arc-type="arc"
       d="M 13.229046,7.9553334 A 1.3229166,1.3229166 0 0 1 11.892875,9.260349 1.3229166,1.3229166 0 0 1 10.583363,7.9285831 1.3229166,1.3229166 0 0 1 11.910708,6.6145909 1.3229166,1.3229166 0 0 1 13.229167,7.9375" />
    <path
       style="fill:#d3cfcb;fill-opacity:0.1;stroke:none"
       id="path22222"
       sodipodi:type="arc"
       sodipodi:cx="19.84375"
       sodipodi:cy="7.937499"
       sodipodi:rx="1.3229166"
       sodipodi:ry="1.3229166"
       sodipodi:start="0.013480801"
       sodipodi:end="0"
       sodipodi:open="true"
       sodipodi:arc-type="arc"
       d="M 21.166546,7.9553325 A 1.3229166,1.3229166 0 0 1 19.830375,9.2603481 1.3229166,1.3229166 0 0 1 18.520863,7.9285821 1.3229166,1.3229166 0 0 1 19.848208,6.6145899 1.3229166,1.3229166 0 0 1 21.166667,7.937499" />
    <path
       style="fill:#d3cfcb;fill-opacity:0.1;stroke:none"
       id="path22222-1"
       sodipodi:type="arc"
       sodipodi:cx="27.78125"
       sodipodi:cy="7.9374986"
       sodipodi:rx="1.3229166"
       sodipodi:ry="1.3229166"
       sodipodi:start="0.013480801"
       sodipodi:end="0"
       sodipodi:open="true"
       sodipodi:arc-type="arc"
       d="m 29.104046,7.955332 a 1.3229166,1.3229166 0 0 1 -1.336171,1.3050156 1.3229166,1.3229166 0 0 1 -1.309512,-1.331766 1.3229166,1.3229166 0 0 1 1.327345,-1.3139921 1.3229166,1.3229166 0 0 1 1.318459,1.3229091" />
    <path
       style="fill:#d3cfcb;fill-opacity:0.1;stroke:none"
       id="path22222-6"
       sodipodi:type="arc"
       sodipodi:cx="11.906248"
       sodipodi:cy="23.8125"
       sodipodi:rx="1.3229166"
       sodipodi:ry="1.3229166"
       sodipodi:start="0.013480801"
       sodipodi:end="0"
       sodipodi:open="true"
       sodipodi:arc-type="arc"
       d="m 13.229045,23.830333 a 1.3229166,1.3229166 0 0 1 -1.336172,1.305016 1.3229166,1.3229166 0 0 1 -1.309511,-1.331766 1.3229166,1.3229166 0 0 1 1.327345,-1.313992 1.3229166,1.3229166 0 0 1 1.318458,1.322909" />
    <path
       style="fill:#d3cfcb;fill-opacity:0.1;stroke:none"
       id="path22222-19"
       sodipodi:type="arc"
       sodipodi:cx="3.968749"
       sodipodi:cy="23.8125"
       sodipodi:rx="1.3229166"
       sodipodi:ry="1.3229166"
       sodipodi:start="0.013480801"
       sodipodi:end="0"
       sodipodi:open="true"
       sodipodi:arc-type="arc"
       d="M 5.2915455,23.830333 A 1.3229166,1.3229166 0 0 1 3.9553738,25.135349 1.3229166,1.3229166 0 0 1 2.6458625,23.803583 1.3229166,1.3229166 0 0 1 3.9732075,22.489591 1.3229166,1.3229166 0 0 1 5.2916657,23.8125" />
    <path
       style="fill:#d3cfcb;fill-opacity:0.1;stroke:none"
       id="path22222-7"
       sodipodi:type="arc"
       sodipodi:cx="11.906248"
       sodipodi:cy="39.6875"
       sodipodi:rx="1.3229166"
       sodipodi:ry="1.3229166"
       sodipodi:start="0.013480801"
       sodipodi:end="0"
       sodipodi:open="true"
       sodipodi:arc-type="arc"
       d="m 13.229045,39.705333 a 1.3229166,1.3229166 0 0 1 -1.336172,1.305016 1.3229166,1.3229166 0 0 1 -1.309511,-1.331766 1.3229166,1.3229166 0 0 1 1.327345,-1.313992 1.3229166,1.3229166 0 0 1 1.318458,1.322909" />
    <path
       style="fill:#d3cfcb;fill-opacity:0.1;stroke:none"
       id="path22222-76"
       sodipodi:type="arc"
       sodipodi:cx="19.843748"
       sodipodi:cy="39.6875"
       sodipodi:rx="1.3229166"
       sodipodi:ry="1.3229166"
       sodipodi:start="0.013480801"
       sodipodi:end="0"
       sodipodi:open="true"
       sodipodi:arc-type="arc"
       d="m 21.166545,39.705333 a 1.3229166,1.3229166 0 0 1 -1.336172,1.305016 1.3229166,1.3229166 0 0 1 -1.309511,-1.331766 1.3229166,1.3229166 0 0 1 1.327345,-1.313992 1.3229166,1.3229166 0 0 1 1.318458,1.322909" />
    <path
       style="fill:#d3cfcb;fill-opacity:0.1;stroke:none"
       id="path22222-61"
       sodipodi:type="arc"
       sodipodi:cx="27.78125"
       sodipodi:cy="23.812496"
       sodipodi:rx="1.3229166"
       sodipodi:ry="1.3229166"
       sodipodi:start="0.013480801"
       sodipodi:end="0"
       sodipodi:open="true"
       sodipodi:arc-type="arc"
       d="m 29.104046,23.83033 a 1.3229166,1.3229166 0 0 1 -1.336171,1.305015 1.3229166,1.3229166 0 0 1 -1.309512,-1.331766 1.3229166,1.3229166 0 0 1 1.327345,-1.313992 1.3229166,1.3229166 0 0 1 1.318459,1.322909" />
    <path
       style="fill:#d3cfcb;fill-opacity:0.1;stroke:none"
       id="path22222-2"
       sodipodi:type="arc"
       sodipodi:cx="35.71875"
       sodipodi:cy="23.812502"
       sodipodi:rx="1.3229166"
       sodipodi:ry="1.3229166"
       sodipodi:start="0.013480801"
       sodipodi:end="0"
       sodipodi:open="true"
       sodipodi:arc-type="arc"
       d="m 37.041546,23.830335 a 1.3229166,1.3229166 0 0 1 -1.336171,1.305016 1.3229166,1.3229166 0 0 1 -1.309512,-1.331766 1.3229166,1.3229166 0 0 1 1.327345,-1.313992 1.3229166,1.3229166 0 0 1 1.318459,1.322909" />
    <path
       style="fill:#d3cfcb;fill-opacity:0.1;stroke:none"
       id="path22222-91"
       sodipodi:type="arc"
       sodipodi:cx="27.781248"
       sodipodi:cy="39.6875"
       sodipodi:rx="1.3229166"
       sodipodi:ry="1.3229166"
       sodipodi:start="0.013480801"
       sodipodi:end="0"
       sodipodi:open="true"
       sodipodi:arc-type="arc"
       d="m 29.104045,39.705333 a 1.3229166,1.3229166 0 0 1 -1.336172,1.305016 1.3229166,1.3229166 0 0 1 -1.309511,-1.331766 1.3229166,1.3229166 0 0 1 1.327345,-1.313992 1.3229166,1.3229166 0 0 1 1.318458,1.322909" />
    <path
       style="fill:#d3cfcb;fill-opacity:0.1;stroke:none"
       id="path22222-15"
       sodipodi:type="arc"
       sodipodi:cx="3.9687514"
       sodipodi:cy="55.5625"
       sodipodi:rx="1.3229166"
       sodipodi:ry="1.3229166"
       sodipodi:start="0.013480801"
       sodipodi:end="0"
       sodipodi:open="true"
       sodipodi:arc-type="arc"
       d="M 5.2915479,55.580333 A 1.3229166,1.3229166 0 0 1 3.9553762,56.885349 1.3229166,1.3229166 0 0 1 2.6458649,55.553583 1.3229166,1.3229166 0 0 1 3.9732099,54.239591 1.3229166,1.3229166 0 0 1 5.2916681,55.5625" />
    <path
       style="fill:#d3cfcb;fill-opacity:0.1;stroke:none"
       id="path22222-0"
       sodipodi:type="arc"
       sodipodi:cx="27.78125"
       sodipodi:cy="55.5625"
       sodipodi:rx="1.3229166"
       sodipodi:ry="1.3229166"
       sodipodi:start="0.013480801"
       sodipodi:end="0"
       sodipodi:open="true"
       sodipodi:arc-type="arc"
       d="m 29.104046,55.580333 a 1.3229166,1.3229166 0 0 1 -1.336171,1.305016 1.3229166,1.3229166 0 0 1 -1.309512,-1.331766 1.3229166,1.3229166 0 0 1 1.327345,-1.313992 1.3229166,1.3229166 0 0 1 1.318459,1.322909" />
    <path
       style="fill:#d3cfcb;fill-opacity:0.1;stroke:none"
       id="path22222-10"
       sodipodi:type="arc"
       sodipodi:cx="35.71875"
       sodipodi:cy="55.562496"
       sodipodi:rx="1.3229166"
       sodipodi:ry="1.3229166"
       sodipodi:start="0.013480801"
       sodipodi:end="0"
       sodipodi:open="true"
       sodipodi:arc-type="arc"
       d="m 37.041546,55.58033 a 1.3229166,1.3229166 0 0 1 -1.336171,1.305015 1.3229166,1.3229166 0 0 1 -1.309512,-1.331766 1.3229166,1.3229166 0 0 1 1.327345,-1.313992 1.3229166,1.3229166 0 0 1 1.318459,1.322909" />
    <path
       style="fill:#d3cfcb;fill-opacity:0.1;stroke:none"
       id="path22222-16"
       sodipodi:type="arc"
       sodipodi:cx="35.71875"
       sodipodi:cy="39.6875"
       sodipodi:rx="1.3229166"
       sodipodi:ry="1.3229166"
       sodipodi:start="0.013480801"
       sodipodi:end="0"
       sodipodi:open="true"
       sodipodi:arc-type="arc"
       d="m 37.041546,39.705333 a 1.3229166,1.3229166 0 0 1 -1.336171,1.305016 1.3229166,1.3229166 0 0 1 -1.309512,-1.331766 1.3229166,1.3229166 0 0 1 1.327345,-1.313992 1.3229166,1.3229166 0 0 1 1.318459,1.322909" />
    <path
       style="fill:#d3cfcb;fill-opacity:0.1;stroke:none"
       id="path22222-4"
       sodipodi:type="arc"
       sodipodi:cx="43.65625"
       sodipodi:cy="23.812502"
       sodipodi:rx="1.3229166"
       sodipodi:ry="1.3229166"
       sodipodi:start="0.013480801"
       sodipodi:end="0"
       sodipodi:open="true"
       sodipodi:arc-type="arc"
       d="m 44.979046,23.830335 a 1.3229166,1.3229166 0 0 1 -1.336171,1.305016 1.3229166,1.3229166 0 0 1 -1.309512,-1.331766 1.3229166,1.3229166 0 0 1 1.327345,-1.313992 1.3229166,1.3229166 0 0 1 1.318459,1.322909" />
    <path
       style="fill:#d3cfcb;fill-opacity:0.1;stroke:none"
       id="path22222-75"
       sodipodi:type="arc"
       sodipodi:cx="43.65625"
       sodipodi:cy="7.9375019"
       sodipodi:rx="1.3229166"
       sodipodi:ry="1.3229166"
       sodipodi:start="0.013480801"
       sodipodi:end="0"
       sodipodi:open="true"
       sodipodi:arc-type="arc"
       d="M 44.979046,7.9553353 A 1.3229166,1.3229166 0 0 1 43.642875,9.2603509 1.3229166,1.3229166 0 0 1 42.333363,7.928585 1.3229166,1.3229166 0 0 1 43.660708,6.6145928 1.3229166,1.3229166 0 0 1 44.979167,7.9375019" />
    <path
       style="fill:#d3cfcb;fill-opacity:0.1;stroke:none"
       id="path22222-3"
       sodipodi:type="arc"
       sodipodi:cx="51.59375"
       sodipodi:cy="7.9375019"
       sodipodi:rx="1.3229166"
       sodipodi:ry="1.3229166"
       sodipodi:start="0.013480801"
       sodipodi:end="0"
       sodipodi:open="true"
       sodipodi:arc-type="arc"
       d="M 52.916546,7.9553353 A 1.3229166,1.3229166 0 0 1 51.580375,9.2603509 1.3229166,1.3229166 0 0 1 50.270863,7.928585 1.3229166,1.3229166 0 0 1 51.598208,6.6145928 1.3229166,1.3229166 0 0 1 52.916667,7.9375019" />
    <path
       style="fill:#d3cfcb;fill-opacity:0.1;stroke:none"
       id="path22222-46"
       sodipodi:type="arc"
       sodipodi:cx="51.59375"
       sodipodi:cy="39.687504"
       sodipodi:rx="1.3229166"
       sodipodi:ry="1.3229166"
       sodipodi:start="0.013480801"
       sodipodi:end="0"
       sodipodi:open="true"
       sodipodi:arc-type="arc"
       d="m 52.916546,39.705337 a 1.3229166,1.3229166 0 0 1 -1.336171,1.305016 1.3229166,1.3229166 0 0 1 -1.309512,-1.331766 1.3229166,1.3229166 0 0 1 1.327345,-1.313992 1.3229166,1.3229166 0 0 1 1.318459,1.322909" />
    <path
       style="fill:#d3cfcb;fill-opacity:0.1;stroke:none"
       id="path22222-97"
       sodipodi:type="arc"
       sodipodi:cx="59.53125"
       sodipodi:cy="39.6875"
       sodipodi:rx="1.3229166"
       sodipodi:ry="1.3229166"
       sodipodi:start="0.013480801"
       sodipodi:end="0"
       sodipodi:open="true"
       sodipodi:arc-type="arc"
       d="m 60.854046,39.705333 a 1.3229166,1.3229166 0 0 1 -1.336171,1.305016 1.3229166,1.3229166 0 0 1 -1.309512,-1.331766 1.3229166,1.3229166 0 0 1 1.327345,-1.313992 1.3229166,1.3229166 0 0 1 1.318459,1.322909" />
    <path
       style="fill:#d3cfcb;fill-opacity:0.1;stroke:none"
       id="path22222-24"
       sodipodi:type="arc"
       sodipodi:cx="67.46875"
       sodipodi:cy="39.6875"
       sodipodi:rx="1.3229166"
       sodipodi:ry="1.3229166"
       sodipodi:start="0.013480801"
       sodipodi:end="0"
       sodipodi:open="true"
       sodipodi:arc-type="arc"
       d="m 68.791546,39.705333 a 1.3229166,1.3229166 0 0 1 -1.336171,1.305016 1.3229166,1.3229166 0 0 1 -1.309512,-1.331766 1.3229166,1.3229166 0 0 1 1.327345,-1.313992 1.3229166,1.3229166 0 0 1 1.318459,1.322909" />
    <path
       style="fill:#d3cfcb;fill-opacity:0.1;stroke:none"
       id="path22222-30"
       sodipodi:type="arc"
       sodipodi:cx="75.40625"
       sodipodi:cy="39.6875"
       sodipodi:rx="1.3229166"
       sodipodi:ry="1.3229166"
       sodipodi:start="0.013480801"
       sodipodi:end="0"
       sodipodi:open="true"
       sodipodi:arc-type="arc"
       d="m 76.729046,39.705333 a 1.3229166,1.3229166 0 0 1 -1.336171,1.305016 1.3229166,1.3229166 0 0 1 -1.309512,-1.331766 1.3229166,1.3229166 0 0 1 1.327345,-1.313992 1.3229166,1.3229166 0 0 1 1.318459,1.322909" />
    <path
       style="fill:#d3cfcb;fill-opacity:0.1;stroke:none"
       id="path22222-00"
       sodipodi:type="arc"
       sodipodi:cx="75.40625"
       sodipodi:cy="23.8125"
       sodipodi:rx="1.3229166"
       sodipodi:ry="1.3229166"
       sodipodi:start="0.013480801"
       sodipodi:end="0"
       sodipodi:open="true"
       sodipodi:arc-type="arc"
       d="m 76.729046,23.830333 a 1.3229166,1.3229166 0 0 1 -1.336171,1.305016 1.3229166,1.3229166 0 0 1 -1.309512,-1.331766 1.3229166,1.3229166 0 0 1 1.327345,-1.313992 1.3229166,1.3229166 0 0 1 1.318459,1.322909" />
    <path
       style="fill:#d3cfcb;fill-opacity:0.1;stroke:none"
       id="path22222-40"
       sodipodi:type="arc"
       sodipodi:cx="67.46875"
       sodipodi:cy="7.9375"
       sodipodi:rx="1.3229166"
       sodipodi:ry="1.3229166"
       sodipodi:start="0.013480801"
       sodipodi:end="0"
       sodipodi:open="true"
       sodipodi:arc-type="arc"
       d="M 68.791546,7.9553334 A 1.3229166,1.3229166 0 0 1 67.455375,9.260349 1.3229166,1.3229166 0 0 1 66.145863,7.9285831 1.3229166,1.3229166 0 0 1 67.473208,6.6145909 1.3229166,1.3229166 0 0 1 68.791667,7.9375" />
    <path
       style="fill:#d3cfcb;fill-opacity:0.1;stroke:none"
       id="path22222-34"
       sodipodi:type="arc"
       sodipodi:cx="75.40625"
       sodipodi:cy="7.9374995"
       sodipodi:rx="1.3229166"
       sodipodi:ry="1.3229166"
       sodipodi:start="0.013480801"
       sodipodi:end="0"
       sodipodi:open="true"
       sodipodi:arc-type="arc"
       d="M 76.729046,7.955333 A 1.3229166,1.3229166 0 0 1 75.392875,9.2603485 1.3229166,1.3229166 0 0 1 74.083363,7.9285826 1.3229166,1.3229166 0 0 1 75.410708,6.6145904 1.3229166,1.3229166 0 0 1 76.729167,7.9374995" />
    <path
       style="fill:#d3cfcb;fill-opacity:0.1;stroke:none"
       id="path22222-42"
       sodipodi:type="arc"
       sodipodi:cx="83.34375"
       sodipodi:cy="23.8125"
       sodipodi:rx="1.3229166"
       sodipodi:ry="1.3229166"
       sodipodi:start="0.013480801"
       sodipodi:end="0"
       sodipodi:open="true"
       sodipodi:arc-type="arc"
       d="m 84.666546,23.830333 a 1.3229166,1.3229166 0 0 1 -1.336171,1.305016 1.3229166,1.3229166 0 0 1 -1.309512,-1.331766 1.3229166,1.3229166 0 0 1 1.327345,-1.313992 1.3229166,1.3229166 0 0 1 1.318459,1.322909" />
    <path
       style="fill:#d3cfcb;fill-opacity:0.1;stroke:none"
       id="path22222-26"
       sodipodi:type="arc"
       sodipodi:cx="91.28125"
       sodipodi:cy="7.9374981"
       sodipodi:rx="1.3229166"
       sodipodi:ry="1.3229166"
       sodipodi:start="0.013480801"
       sodipodi:end="0"
       sodipodi:open="true"
       sodipodi:arc-type="arc"
       d="M 92.604046,7.9553315 A 1.3229166,1.3229166 0 0 1 91.267875,9.2603471 1.3229166,1.3229166 0 0 1 89.958363,7.9285812 1.3229166,1.3229166 0 0 1 91.285708,6.614589 1.3229166,1.3229166 0 0 1 92.604167,7.9374981" />
    <path
       style="fill:#d3cfcb;fill-opacity:0.1;stroke:none"
       id="path22222-36"
       sodipodi:type="arc"
       sodipodi:cx="91.28125"
       sodipodi:cy="39.6875"
       sodipodi:rx="1.3229166"
       sodipodi:ry="1.3229166"
       sodipodi:start="0.013480801"
       sodipodi:end="0"
       sodipodi:open="true"
       sodipodi:arc-type="arc"
       d="m 92.604046,39.705333 a 1.3229166,1.3229166 0 0 1 -1.336171,1.305016 1.3229166,1.3229166 0 0 1 -1.309512,-1.331766 1.3229166,1.3229166 0 0 1 1.327345,-1.313992 1.3229166,1.3229166 0 0 1 1.318459,1.322909" />
    <path
       style="fill:#d3cfcb;fill-opacity:0.1;stroke:none"
       id="path22222-5"
       sodipodi:type="arc"
       sodipodi:cx="91.28125"
       sodipodi:cy="23.812498"
       sodipodi:rx="1.3229166"
       sodipodi:ry="1.3229166"
       sodipodi:start="0.013480801"
       sodipodi:end="0"
       sodipodi:open="true"
       sodipodi:arc-type="arc"
       d="m 92.604046,23.830332 a 1.3229166,1.3229166 0 0 1 -1.336171,1.305015 1.3229166,1.3229166 0 0 1 -1.309512,-1.331766 1.3229166,1.3229166 0 0 1 1.327345,-1.313992 1.3229166,1.3229166 0 0 1 1.318459,1.322909" />
    <path
       style="fill:#d3cfcb;fill-opacity:0.1;stroke:none"
       id="path22222-368"
       sodipodi:type="arc"
       sodipodi:cx="83.34375"
       sodipodi:cy="55.5625"
       sodipodi:rx="1.3229166"
       sodipodi:ry="1.3229166"
       sodipodi:start="0.013480801"
       sodipodi:end="0"
       sodipodi:open="true"
       sodipodi:arc-type="arc"
       d="m 84.666546,55.580333 a 1.3229166,1.3229166 0 0 1 -1.336171,1.305016 1.3229166,1.3229166 0 0 1 -1.309512,-1.331766 1.3229166,1.3229166 0 0 1 1.327345,-1.313992 1.3229166,1.3229166 0 0 1 1.318459,1.322909" />
    <path
       style="fill:#d3cfcb;fill-opacity:0.1;stroke:none"
       id="path22222-247"
       sodipodi:type="arc"
       sodipodi:cx="75.40625"
       sodipodi:cy="55.5625"
       sodipodi:rx="1.3229166"
       sodipodi:ry="1.3229166"
       sodipodi:start="0.013480801"
       sodipodi:end="0"
       sodipodi:open="true"
       sodipodi:arc-type="arc"
       d="m 76.729046,55.580333 a 1.3229166,1.3229166 0 0 1 -1.336171,1.305016 1.3229166,1.3229166 0 0 1 -1.309512,-1.331766 1.3229166,1.3229166 0 0 1 1.327345,-1.313992 1.3229166,1.3229166 0 0 1 1.318459,1.322909" />
    <path
       style="fill:#d3cfcb;fill-opacity:0.1;stroke:none"
       id="path22222-248"
       sodipodi:type="arc"
       sodipodi:cx="91.28125"
       sodipodi:cy="55.5625"
       sodipodi:rx="1.3229166"
       sodipodi:ry="1.3229166"
       sodipodi:start="0.013480801"
       sodipodi:end="0"
       sodipodi:open="true"
       sodipodi:arc-type="arc"
       d="m 92.604046,55.580333 a 1.3229166,1.3229166 0 0 1 -1.336171,1.305016 1.3229166,1.3229166 0 0 1 -1.309512,-1.331766 1.3229166,1.3229166 0 0 1 1.327345,-1.313992 1.3229166,1.3229166 0 0 1 1.318459,1.322909" />
    <path
       style="fill:#d3cfcb;fill-opacity:0.1;stroke:none"
       id="path22222-8"
       sodipodi:type="arc"
       sodipodi:cx="67.46875"
       sodipodi:cy="71.4375"
       sodipodi:rx="1.3229166"
       sodipodi:ry="1.3229166"
       sodipodi:start="0.013480801"
       sodipodi:end="0"
       sodipodi:open="true"
       sodipodi:arc-type="arc"
       d="m 68.791546,71.455333 a 1.3229166,1.3229166 0 0 1 -1.336171,1.305016 1.3229166,1.3229166 0 0 1 -1.309512,-1.331766 1.3229166,1.3229166 0 0 1 1.327345,-1.313992 1.3229166,1.3229166 0 0 1 1.318459,1.322909" />
    <path
       style="fill:#d3cfcb;fill-opacity:0.1;stroke:none"
       id="path22222-95"
       sodipodi:type="arc"
       sodipodi:cx="59.53125"
       sodipodi:cy="55.562504"
       sodipodi:rx="1.3229166"
       sodipodi:ry="1.3229166"
       sodipodi:start="0.013480801"
       sodipodi:end="0"
       sodipodi:open="true"
       sodipodi:arc-type="arc"
       d="m 60.854046,55.580337 a 1.3229166,1.3229166 0 0 1 -1.336171,1.305016 1.3229166,1.3229166 0 0 1 -1.309512,-1.331766 1.3229166,1.3229166 0 0 1 1.327345,-1.313992 1.3229166,1.3229166 0 0 1 1.318459,1.322909" />
    <path
       style="fill:#d3cfcb;fill-opacity:0.1;stroke:none"
       id="path22222-68"
       sodipodi:type="arc"
       sodipodi:cx="51.59375"
       sodipodi:cy="55.5625"
       sodipodi:rx="1.3229166"
       sodipodi:ry="1.3229166"
       sodipodi:start="0.013480801"
       sodipodi:end="0"
       sodipodi:open="true"
       sodipodi:arc-type="arc"
       d="m 52.916546,55.580333 a 1.3229166,1.3229166 0 0 1 -1.336171,1.305016 1.3229166,1.3229166 0 0 1 -1.309512,-1.331766 1.3229166,1.3229166 0 0 1 1.327345,-1.313992 1.3229166,1.3229166 0 0 1 1.318459,1.322909" />
    <path
       style="fill:#d3cfcb;fill-opacity:0.1;stroke:none"
       id="path22222-13"
       sodipodi:type="arc"
       sodipodi:cx="43.65625"
       sodipodi:cy="55.5625"
       sodipodi:rx="1.3229166"
       sodipodi:ry="1.3229166"
       sodipodi:start="0.013480801"
       sodipodi:end="0"
       sodipodi:open="true"
       sodipodi:arc-type="arc"
       d="m 44.979046,55.580333 a 1.3229166,1.3229166 0 0 1 -1.336171,1.305016 1.3229166,1.3229166 0 0 1 -1.309512,-1.331766 1.3229166,1.3229166 0 0 1 1.327345,-1.313992 1.3229166,1.3229166 0 0 1 1.318459,1.322909" />
    <path
       style="fill:#d3cfcb;fill-opacity:0.1;stroke:none"
       id="path22222-83"
       sodipodi:type="arc"
       sodipodi:cx="35.71875"
       sodipodi:cy="71.4375"
       sodipodi:rx="1.3229166"
       sodipodi:ry="1.3229166"
       sodipodi:start="0.013480801"
       sodipodi:end="0"
       sodipodi:open="true"
       sodipodi:arc-type="arc"
       d="m 37.041546,71.455333 a 1.3229166,1.3229166 0 0 1 -1.336171,1.305016 1.3229166,1.3229166 0 0 1 -1.309512,-1.331766 1.3229166,1.3229166 0 0 1 1.327345,-1.313992 1.3229166,1.3229166 0 0 1 1.318459,1.322909" />
    <path
       style="fill:#d3cfcb;fill-opacity:0.1;stroke:none"
       id="path22222-14"
       sodipodi:type="arc"
       sodipodi:cx="43.65625"
       sodipodi:cy="71.4375"
       sodipodi:rx="1.3229166"
       sodipodi:ry="1.3229166"
       sodipodi:start="0.013480801"
       sodipodi:end="0"
       sodipodi:open="true"
       sodipodi:arc-type="arc"
       d="m 44.979046,71.455333 a 1.3229166,1.3229166 0 0 1 -1.336171,1.305016 1.3229166,1.3229166 0 0 1 -1.309512,-1.331766 1.3229166,1.3229166 0 0 1 1.327345,-1.313992 1.3229166,1.3229166 0 0 1 1.318459,1.322909" />
    <path
       style="fill:#d3cfcb;fill-opacity:0.1;stroke:none"
       id="path22222-07"
       sodipodi:type="arc"
       sodipodi:cx="51.59375"
       sodipodi:cy="71.4375"
       sodipodi:rx="1.3229166"
       sodipodi:ry="1.3229166"
       sodipodi:start="0.013480801"
       sodipodi:end="0"
       sodipodi:open="true"
       sodipodi:arc-type="arc"
       d="m 52.916546,71.455333 a 1.3229166,1.3229166 0 0 1 -1.336171,1.305016 1.3229166,1.3229166 0 0 1 -1.309512,-1.331766 1.3229166,1.3229166 0 0 1 1.327345,-1.313992 1.3229166,1.3229166 0 0 1 1.318459,1.322909" />
    <path
       style="fill:#d3cfcb;fill-opacity:0.1;stroke:none"
       id="path22222-08"
       sodipodi:type="arc"
       sodipodi:cx="59.53125"
       sodipodi:cy="87.3125"
       sodipodi:rx="1.3229166"
       sodipodi:ry="1.3229166"
       sodipodi:start="0.013480801"
       sodipodi:end="0"
       sodipodi:open="true"
       sodipodi:arc-type="arc"
       d="m 60.854046,87.330333 a 1.3229166,1.3229166 0 0 1 -1.336171,1.305016 1.3229166,1.3229166 0 0 1 -1.309512,-1.331766 1.3229166,1.3229166 0 0 1 1.327345,-1.313992 1.3229166,1.3229166 0 0 1 1.318459,1.322909" />
    <path
       style="fill:#d3cfcb;fill-opacity:0.1;stroke:none"
       id="path22222-01"
       sodipodi:type="arc"
       sodipodi:cx="67.46875"
       sodipodi:cy="87.3125"
       sodipodi:rx="1.3229166"
       sodipodi:ry="1.3229166"
       sodipodi:start="0.013480801"
       sodipodi:end="0"
       sodipodi:open="true"
       sodipodi:arc-type="arc"
       d="m 68.791546,87.330333 a 1.3229166,1.3229166 0 0 1 -1.336171,1.305016 1.3229166,1.3229166 0 0 1 -1.309512,-1.331766 1.3229166,1.3229166 0 0 1 1.327345,-1.313992 1.3229166,1.3229166 0 0 1 1.318459,1.322909" />
    <path
       style="fill:#d3cfcb;fill-opacity:0.1;stroke:none"
       id="path22222-27"
       sodipodi:type="arc"
       sodipodi:cx="75.40625"
       sodipodi:cy="87.3125"
       sodipodi:rx="1.3229166"
       sodipodi:ry="1.3229166"
       sodipodi:start="0.013480801"
       sodipodi:end="0"
       sodipodi:open="true"
       sodipodi:arc-type="arc"
       d="m 76.729046,87.330333 a 1.3229166,1.3229166 0 0 1 -1.336171,1.305016 1.3229166,1.3229166 0 0 1 -1.309512,-1.331766 1.3229166,1.3229166 0 0 1 1.327345,-1.313992 1.3229166,1.3229166 0 0 1 1.318459,1.322909" />
    <path
       style="fill:#d3cfcb;fill-opacity:0.1;stroke:none"
       id="path22222-98"
       sodipodi:type="arc"
       sodipodi:cx="83.34375"
       sodipodi:cy="87.3125"
       sodipodi:rx="1.3229166"
       sodipodi:ry="1.3229166"
       sodipodi:start="0.013480801"
       sodipodi:end="0"
       sodipodi:open="true"
       sodipodi:arc-type="arc"
       d="m 84.666546,87.330333 a 1.3229166,1.3229166 0 0 1 -1.336171,1.305016 1.3229166,1.3229166 0 0 1 -1.309512,-1.331766 1.3229166,1.3229166 0 0 1 1.327345,-1.313992 1.3229166,1.3229166 0 0 1 1.318459,1.322909" />
    <path
       style="fill:#d3cfcb;fill-opacity:0.1;stroke:none"
       id="path22222-22"
       sodipodi:type="arc"
       sodipodi:cx="91.28125"
       sodipodi:cy="87.3125"
       sodipodi:rx="1.3229166"
       sodipodi:ry="1.3229166"
       sodipodi:start="0.013480801"
       sodipodi:end="0"
       sodipodi:open="true"
       sodipodi:arc-type="arc"
       d="m 92.604046,87.330333 a 1.3229166,1.3229166 0 0 1 -1.336171,1.305016 1.3229166,1.3229166 0 0 1 -1.309512,-1.331766 1.3229166,1.3229166 0 0 1 1.327345,-1.313992 1.3229166,1.3229166 0 0 1 1.318459,1.322909" />
    <path
       style="fill:#d3cfcb;fill-opacity:0.1;stroke:none"
       id="path22222-86"
       sodipodi:type="arc"
       sodipodi:cx="35.71875"
       sodipodi:cy="87.3125"
       sodipodi:rx="1.3229166"
       sodipodi:ry="1.3229166"
       sodipodi:start="0.013480801"
       sodipodi:end="0"
       sodipodi:open="true"
       sodipodi:arc-type="arc"
       d="m 37.041546,87.330333 a 1.3229166,1.3229166 0 0 1 -1.336171,1.305016 1.3229166,1.3229166 0 0 1 -1.309512,-1.331766 1.3229166,1.3229166 0 0 1 1.327345,-1.313992 1.3229166,1.3229166 0 0 1 1.318459,1.322909" />
    <path
       style="fill:#d3cfcb;fill-opacity:0.1;stroke:none"
       id="path22222-58"
       sodipodi:type="arc"
       sodipodi:cx="27.78125"
       sodipodi:cy="87.3125"
       sodipodi:rx="1.3229166"
       sodipodi:ry="1.3229166"
       sodipodi:start="0.013480801"
       sodipodi:end="0"
       sodipodi:open="true"
       sodipodi:arc-type="arc"
       d="m 29.104046,87.330333 a 1.3229166,1.3229166 0 0 1 -1.336171,1.305016 1.3229166,1.3229166 0 0 1 -1.309512,-1.331766 1.3229166,1.3229166 0 0 1 1.327345,-1.313992 1.3229166,1.3229166 0 0 1 1.318459,1.322909" />
    <path
       style="fill:#d3cfcb;fill-opacity:0.1;stroke:none"
       id="path22222-31"
       sodipodi:type="arc"
       sodipodi:cx="19.84375"
       sodipodi:cy="87.3125"
       sodipodi:rx="1.3229166"
       sodipodi:ry="1.3229166"
       sodipodi:start="0.013480801"
       sodipodi:end="0"
       sodipodi:open="true"
       sodipodi:arc-type="arc"
       d="m 21.166546,87.330333 a 1.3229166,1.3229166 0 0 1 -1.336171,1.305016 1.3229166,1.3229166 0 0 1 -1.309512,-1.331766 1.3229166,1.3229166 0 0 1 1.327345,-1.313992 1.3229166,1.3229166 0 0 1 1.318459,1.322909" />
    <path
       style="fill:#d3cfcb;fill-opacity:0.1;stroke:none"
       id="path22222-85"
       sodipodi:type="arc"
       sodipodi:cx="11.906248"
       sodipodi:cy="87.3125"
       sodipodi:rx="1.3229166"
       sodipodi:ry="1.3229166"
       sodipodi:start="0.013480801"
       sodipodi:end="0"
       sodipodi:open="true"
       sodipodi:arc-type="arc"
       d="m 13.229045,87.330333 a 1.3229166,1.3229166 0 0 1 -1.336172,1.305016 1.3229166,1.3229166 0 0 1 -1.309511,-1.331766 1.3229166,1.3229166 0 0 1 1.327345,-1.313992 1.3229166,1.3229166 0 0 1 1.318458,1.322909" />
    <path
       style="fill:#d3cfcb;fill-opacity:0.1;stroke:none"
       id="path22222-04"
       sodipodi:type="arc"
       sodipodi:cx="3.9687517"
       sodipodi:cy="71.4375"
       sodipodi:rx="1.3229166"
       sodipodi:ry="1.3229166"
       sodipodi:start="0.013480801"
       sodipodi:end="0"
       sodipodi:open="true"
       sodipodi:arc-type="arc"
       d="M 5.2915481,71.455333 A 1.3229166,1.3229166 0 0 1 3.9553764,72.760349 1.3229166,1.3229166 0 0 1 2.6458651,71.428583 1.3229166,1.3229166 0 0 1 3.9732102,70.114591 1.3229166,1.3229166 0 0 1 5.2916683,71.4375" />
    <path
       style="fill:#d3cfcb;fill-opacity:0.1;stroke:none"
       id="path22222-918"
       sodipodi:type="arc"
       sodipodi:cx="11.90625"
       sodipodi:cy="71.437492"
       sodipodi:rx="1.3229166"
       sodipodi:ry="1.3229166"
       sodipodi:start="0.013480801"
       sodipodi:end="0"
       sodipodi:open="true"
       sodipodi:arc-type="arc"
       d="m 13.229046,71.455326 a 1.3229166,1.3229166 0 0 1 -1.336171,1.305015 1.3229166,1.3229166 0 0 1 -1.309512,-1.331766 1.3229166,1.3229166 0 0 1 1.327345,-1.313992 1.3229166,1.3229166 0 0 1 1.318459,1.322909" />
    <path
       style="fill:#d3cfcb;fill-opacity:0.1;stroke:none"
       id="path22222-96"
       sodipodi:type="arc"
       sodipodi:cx="19.843748"
       sodipodi:cy="71.437492"
       sodipodi:rx="1.3229166"
       sodipodi:ry="1.3229166"
       sodipodi:start="0.013480801"
       sodipodi:end="0"
       sodipodi:open="true"
       sodipodi:arc-type="arc"
       d="m 21.166545,71.455326 a 1.3229166,1.3229166 0 0 1 -1.336172,1.305015 1.3229166,1.3229166 0 0 1 -1.309511,-1.331766 1.3229166,1.3229166 0 0 1 1.327345,-1.313992 1.3229166,1.3229166 0 0 1 1.318458,1.322909" />
  </g>
</svg>
