<?xml version="1.0" encoding="UTF-8" standalone="no"?>
<!-- Created with Inkscape (http://www.inkscape.org/) -->

<svg
   width="360"
   height="360"
   viewBox="0 0 95.249998 95.250003"
   version="1.1"
   id="svg8570"
   inkscape:version="1.1.2 (0a00cf5339, 2022-02-04, custom)"
   sodipodi:docname="fond-enveloppes.svg"
   xmlns:inkscape="http://www.inkscape.org/namespaces/inkscape"
   xmlns:sodipodi="http://sodipodi.sourceforge.net/DTD/sodipodi-0.dtd"
   xmlns="http://www.w3.org/2000/svg"
   xmlns:svg="http://www.w3.org/2000/svg">
  <sodipodi:namedview
     id="namedview8572"
     pagecolor="#ffffff"
     bordercolor="#666666"
     borderopacity="1.0"
     inkscape:pageshadow="2"
     inkscape:pageopacity="0.0"
     inkscape:pagecheckerboard="0"
     inkscape:document-units="mm"
     showgrid="false"
     units="px"
     inkscape:zoom="0.8279634"
     inkscape:cx="-19.928417"
     inkscape:cy="194.45304"
     inkscape:window-width="1920"
     inkscape:window-height="1017"
     inkscape:window-x="1592"
     inkscape:window-y="-8"
     inkscape:window-maximized="1"
     inkscape:current-layer="layer1" />
  <defs
     id="defs8567" />
  <g
     inkscape:label="Calque 1"
     inkscape:groupmode="layer"
     id="layer1">
    <rect
       style="fill:#d2d0cb;fill-opacity:0.05;stroke-width:0.13229"
       id="rect12860-5-24-3-7-0"
       width="15.87487"
       height="7.9374352"
       x="71.437523"
       y="87.312622"
       ry="4.7683326e-07" />
    <path
       id="rect12860-5-24-6-1"
       style="fill:#d2d0cb;fill-opacity:0.05;stroke-width:0.13229"
       d="m 71.437552,87.312565 10e-7,7.937435 h 15.87487 v -7.937434 z m 1.98436,3.968718 4.960896,10e-7 10e-7,1.984357 -4.960898,10e-7 z" />
    <path
       style="fill:#d2d0cb;fill-opacity:0.05;stroke:none;stroke-width:0.13229px;stroke-linecap:butt;stroke-linejoin:miter;stroke-opacity:1"
       d="m 86.320223,88.304811 -4e-6,1.984356 -0.992179,10e-7 3e-6,-1.984357 z"
       id="path17273-60-1" />
    <rect
       style="fill:#d2d0cb;fill-opacity:0.05;stroke-width:0.229135"
       id="rect12860-5-4-3-4"
       width="15.874999"
       height="23.812498"
       x="7.9374986"
       y="-79.374992"
       ry="1.4305114e-06"
       transform="rotate(90)" />
    <path
       style="fill:#d2d0cb;fill-opacity:0.05;stroke:none;stroke-width:0.132291px;stroke-linecap:butt;stroke-linejoin:miter;stroke-opacity:1"
       d="m 79.374991,7.937498 v 15.875004 l -2.976562,-0.99218 V 8.929678 Z"
       id="path19366-41-0" />
    <path
       style="fill:#d2d0cb;fill-opacity:0.05;stroke:none;stroke-width:0.132291px;stroke-linecap:butt;stroke-linejoin:miter;stroke-opacity:1"
       d="m 79.374991,7.937498 -1.984375,0.99218 -19.843755,1e-5 -1.984373,-0.99219 0.992187,1.9843805 V 21.828142 l -0.992182,1.98436 1.98437,-0.99218 h 19.843753 l 1.984374,0.99218 z"
       id="path19921-04-1" />
    <path
       style="fill:#d2d0cb;fill-opacity:0.05;stroke:none;stroke-width:0.132291px;stroke-linecap:butt;stroke-linejoin:miter;stroke-opacity:1"
       d="m 73.421863,15.874999 -0.992187,5.953133 -11.906251,-1.984363 0.992187,-5.95314 z"
       id="path20646-2-8" />
    <rect
       style="fill:#d2d0cb;fill-opacity:0.05;stroke-width:0.132291"
       id="rect12860-5"
       width="15.875"
       height="7.9375"
       x="79.374985"
       y="63.5"
       ry="4.7683716e-07" />
    <rect
       style="fill:#d2d0cb;fill-opacity:0.05;stroke-width:0.229135"
       id="rect12860-5-4"
       width="15.874999"
       height="23.812498"
       x="71.4375"
       y="-63.499985"
       ry="1.4305114e-06"
       transform="rotate(90)" />
    <path
       style="fill:#d2d0cb;fill-opacity:0.05;stroke:none;stroke-width:0.132291px;stroke-linecap:butt;stroke-linejoin:miter;stroke-opacity:1"
       d="m 79.374986,63.500001 0.992187,1.984375 h 13.890629 l 0.992183,-1.984375 z"
       id="path16528" />
    <rect
       style="fill:#d2d0cb;fill-opacity:0.05;stroke-width:0.132291"
       id="rect12860-5-8-9"
       width="15.875"
       height="7.9375"
       x="39.687492"
       y="31.75"
       ry="4.7683716e-07" />
    <path
       style="fill:#d2d0cb;fill-opacity:0.05;stroke:none;stroke-width:0.132291px;stroke-linecap:butt;stroke-linejoin:miter;stroke-opacity:1"
       d="m 39.687494,31.749999 0.992187,1.984375 H 54.57031 l 0.992183,-1.984375 z"
       id="path16528-4-6" />
    <path
       style="fill:#d2d0cb;fill-opacity:0.05;stroke:none;stroke-width:0.132291px;stroke-linecap:butt;stroke-linejoin:miter;stroke-opacity:1"
       d="m 63.499985,71.4375 v 15.875 l -2.97656,-0.99218 V 72.42968 Z"
       id="path19366" />
    <path
       style="fill:#d2d0cb;fill-opacity:0.05;stroke:none;stroke-width:0.132291px;stroke-linecap:butt;stroke-linejoin:miter;stroke-opacity:1"
       d="m 63.499985,71.4375 -1.98437,0.99218 -19.84376,10e-6 -1.984373,-0.99219 0.992187,1.98438 v 11.90626 l -0.992182,1.98436 1.98437,-0.99218 h 19.843758 l 1.98437,0.99218 z"
       id="path19921" />
    <path
       style="fill:#d2d0cb;fill-opacity:0.05;stroke:none;stroke-width:0.132291px;stroke-linecap:butt;stroke-linejoin:miter;stroke-opacity:1"
       d="m 57.546855,79.375 -0.99218,5.95313 -11.90626,-1.98436 0.99219,-5.95314 z"
       id="path20646" />
    <rect
       style="fill:#d2d0cb;fill-opacity:0.05;stroke-width:0.229135"
       id="rect12860-5-4-0-8"
       width="15.874999"
       height="23.812498"
       x="31.749996"
       y="-31.750004"
       ry="1.4305114e-06"
       transform="rotate(90)" />
    <path
       style="fill:#d2d0cb;fill-opacity:0.05;stroke:none;stroke-width:0.132291px;stroke-linecap:butt;stroke-linejoin:miter;stroke-opacity:1"
       d="m 31.750001,31.749994 v 15.875 l -2.976562,-0.99218 v -13.89064 z"
       id="path19366-4-5" />
    <path
       style="fill:#d2d0cb;fill-opacity:0.05;stroke:none;stroke-width:0.132291px;stroke-linecap:butt;stroke-linejoin:miter;stroke-opacity:1"
       d="m 31.750001,31.749994 -1.984375,0.99218 -19.8437552,1e-5 -1.984373,-0.99219 0.992187,1.98438 v 11.90626 l -0.992182,1.98436 1.98437,-0.99218 H 29.765626 L 31.75,47.624994 Z"
       id="path19921-0-1" />
    <path
       style="fill:#d2d0cb;fill-opacity:0.05;stroke:none;stroke-width:0.132291px;stroke-linecap:butt;stroke-linejoin:miter;stroke-opacity:1"
       d="m 25.796873,39.687494 -0.992187,5.95313 -11.906251,-1.98436 0.992187,-5.95314 z"
       id="path20646-4-5" />
    <rect
       style="fill:#d2d0cb;fill-opacity:0.05;stroke-width:0.132291"
       id="rect12860-5-0-0"
       width="15.875"
       height="7.9375"
       x="0"
       y="5.1608276e-06"
       ry="4.7683716e-07" />
    <path
       style="fill:#d2d0cb;fill-opacity:0.05;stroke:none;stroke-width:0.132291px;stroke-linecap:butt;stroke-linejoin:miter;stroke-opacity:1"
       d="M 6.2939453e-7,6.7754516e-6 0.99218763,1.9843818 H 14.882818 L 15.874998,6.7754516e-6 Z"
       id="path16528-5-3" />
    <path
       style="fill:#d2d0cb;fill-opacity:0.05;stroke:none;stroke-width:0.132291px;stroke-linecap:butt;stroke-linejoin:miter;stroke-opacity:1"
       d="M 23.812496,7.9375014 H 39.687493 L 31.749996,11.906251 Z"
       id="path13608" />
    <rect
       style="fill:#d2d0cb;fill-opacity:0.05;stroke-width:0.132291"
       id="rect12860-5-2"
       width="15.874998"
       height="7.937499"
       x="23.8125"
       y="7.9375024"
       ry="4.768371e-07" />
    <path
       style="fill:#d2d0cb;fill-opacity:0.05;stroke:none;stroke-width:0.132291px;stroke-linecap:butt;stroke-linejoin:miter;stroke-opacity:1"
       d="m 23.812499,15.875001 5.953122,-4.960938 -5.953122,-2.9765606 15.874993,-10e-7 -5.95312,2.9765626 5.953124,4.960937 z"
       id="path16347" />
    <path
       style="fill:#d2d0cb;fill-opacity:0.05;stroke:none;stroke-width:0.132291px;stroke-linecap:butt;stroke-linejoin:miter;stroke-opacity:1"
       d="m 55.562485,47.625004 h 15.874997 l -7.937497,3.96875 z"
       id="path13608-8" />
    <rect
       style="fill:#d2d0cb;fill-opacity:0.05;stroke-width:0.132291"
       id="rect12860-5-2-6"
       width="15.874998"
       height="7.937499"
       x="55.562489"
       y="47.625008"
       ry="4.768371e-07" />
    <path
       style="fill:#d2d0cb;fill-opacity:0.05;stroke:none;stroke-width:0.132291px;stroke-linecap:butt;stroke-linejoin:miter;stroke-opacity:1"
       d="m 55.562488,55.562504 5.953122,-4.960938 -5.953122,-2.976561 15.874993,-1e-6 -5.95312,2.976563 5.953124,4.960937 z"
       id="path16347-7" />
    <path
       style="fill:#d2d0cb;fill-opacity:0.05;stroke:none;stroke-width:0.132291px;stroke-linecap:butt;stroke-linejoin:miter;stroke-opacity:1"
       d="M -1.5258789e-5,79.375 H 15.874982 l -7.9374973,3.96875 z"
       id="path13608-7" />
    <rect
       style="fill:#d2d0cb;fill-opacity:0.05;stroke-width:0.132291"
       id="rect12860-5-2-5"
       width="15.874998"
       height="7.937499"
       x="-1.2934815e-05"
       y="79.375"
       ry="4.768371e-07" />
    <path
       style="fill:#d2d0cb;fill-opacity:0.05;stroke:none;stroke-width:0.132291px;stroke-linecap:butt;stroke-linejoin:miter;stroke-opacity:1"
       d="M -1.2258789e-5,87.3125 5.9531097,82.351562 -1.2258789e-5,79.375001 15.874981,79.375 9.9218607,82.351563 15.874985,87.3125 Z"
       id="path16347-6" />
    <rect
       style="fill:#d2d0cb;fill-opacity:0.05;stroke-width:0.13229"
       id="rect12860-5-24-3"
       width="15.87487"
       height="7.9374352"
       x="79.375122"
       y="39.687504"
       ry="4.7683326e-07" />
    <path
       id="rect12860-5-24"
       style="fill:#d2d0cb;fill-opacity:0.05;stroke-width:0.13229"
       d="m 79.375144,39.68744 v 7.937435 h 15.87487 V 39.68744 Z m 1.984359,3.968718 H 86.3204 v 1.984358 h -4.960897 z" />
    <path
       style="fill:#d2d0cb;fill-opacity:0.05;stroke:none;stroke-width:0.13229px;stroke-linecap:butt;stroke-linejoin:miter;stroke-opacity:1"
       d="m 94.257815,40.679685 -4e-6,1.984357 -0.99218,10e-7 4e-6,-1.984358 z"
       id="path17273" />
    <rect
       style="fill:#d2d0cb;fill-opacity:0.05;stroke-width:0.13229"
       id="rect12860-5-24-3-8"
       width="15.87487"
       height="7.9374352"
       x="15.875118"
       y="55.5625"
       ry="4.7683326e-07" />
    <path
       id="rect12860-5-24-4"
       style="fill:#d2d0cb;fill-opacity:0.05;stroke-width:0.13229"
       d="m 15.875142,55.562437 v 7.937435 h 15.87487 v -7.937435 z m 1.984359,3.968718 h 4.960897 v 1.984358 h -4.960897 z" />
    <path
       style="fill:#d2d0cb;fill-opacity:0.05;stroke:none;stroke-width:0.13229px;stroke-linecap:butt;stroke-linejoin:miter;stroke-opacity:1"
       d="m 30.757813,56.554682 -4e-6,1.984357 -0.99218,10e-7 4e-6,-1.984358 z"
       id="path17273-6" />
  </g>
</svg>
