<?xml version="1.0" encoding="UTF-8" standalone="no"?>
<!-- Created with Inkscape (http://www.inkscape.org/) -->

<svg
   width="360"
   height="360"
   viewBox="0 0 95.250003 95.250003"
   version="1.1"
   id="svg4391"
   inkscape:version="1.1.2 (0a00cf5339, 2022-02-04, custom)"
   sodipodi:docname="habillage-de-fond.svg"
   xmlns:inkscape="http://www.inkscape.org/namespaces/inkscape"
   xmlns:sodipodi="http://sodipodi.sourceforge.net/DTD/sodipodi-0.dtd"
   xmlns="http://www.w3.org/2000/svg"
   xmlns:svg="http://www.w3.org/2000/svg">
  <sodipodi:namedview
     id="namedview4393"
     pagecolor="#ffffff"
     bordercolor="#666666"
     borderopacity="1.0"
     inkscape:pageshadow="2"
     inkscape:pageopacity="0"
     inkscape:pagecheckerboard="0"
     inkscape:document-units="mm"
     showgrid="false"
     width="360mm"
     units="px"
     inkscape:zoom="1.1598906"
     inkscape:cx="68.109873"
     inkscape:cy="118.11459"
     inkscape:window-width="1600"
     inkscape:window-height="837"
     inkscape:window-x="-8"
     inkscape:window-y="-8"
     inkscape:window-maximized="1"
     inkscape:current-layer="layer1" />
  <defs
     id="defs4388" />
  <g
     inkscape:label="Calque 1"
     inkscape:groupmode="layer"
     id="layer1">
    <rect
       style="fill:#ff8080;fill-opacity:0.221574;stroke-width:0.374961"
       id="rect4928"
       width="15.875"
       height="15.875"
       x="-18.93318"
       y="-5.2465429" />
    <path
       id="rect5838-4"
       style="fill:#8f4528;fill-opacity:0.12000003;stroke-width:0.2297"
       d="m 14.24265,70.443681 c 0.727183,-0.09133 1.38613,0.42057 1.477457,1.147753 0.09133,0.727183 -0.420568,1.386129 -1.147751,1.477457 -0.727184,0.09133 -1.386129,-0.420569 -1.477458,-1.147751 -0.09133,-0.727183 0.420569,-1.38613 1.147752,-1.477459 z m -1.64853,-13.12605 c 0.727184,-0.09133 1.38613,0.420569 1.477459,1.147752 0.09133,0.727182 -0.42057,1.386129 -1.147753,1.477458 -0.727183,0.09133 -1.386129,-0.42057 -1.477457,-1.147752 -0.09133,-0.727184 0.420568,-1.38613 1.147751,-1.477458 z M 6.8553605,64.70492 19.98141,63.056391 c 0.727184,-0.09133 1.38613,0.420569 1.477458,1.147752 0.09133,0.727184 -0.420569,1.38613 -1.147752,1.477459 L 7.1850665,67.330131 c -0.727184,0.09133 -1.38613,-0.420569 -1.477458,-1.147752 -0.09133,-0.727184 0.420569,-1.38613 1.147752,-1.477459 z" />
    <rect
       style="fill:#8f4528;fill-opacity:0.12000003;stroke-width:0.124726"
       id="rect6268"
       width="2.6458333"
       height="21.166666"
       x="19.599016"
       y="21.22113"
       ry="1.3229166"
       transform="rotate(-33.161841)" />
    <rect
       style="fill:#8f4528;fill-opacity:0.12000003;stroke-width:0.124726"
       id="rect6268-1"
       width="2.6458333"
       height="21.166666"
       x="95.526047"
       y="23.762079"
       ry="1.3229166"
       transform="rotate(26.328465)" />
    <path
       id="rect6768"
       style="fill:#8f4528;fill-opacity:0.12000003;stroke-width:0.229245"
       d="m 68.96971,25.548219 c -0.722929,-0.120458 -1.401901,0.364564 -1.522359,1.087492 l -0.869735,5.219703 -5.219703,-0.869735 c -0.722929,-0.120458 -1.401901,0.364563 -1.52236,1.087492 -0.120458,0.722929 0.364564,1.401901 1.087493,1.522359 l 5.219703,0.869735 -1.087168,6.524629 -5.219703,-0.869735 c -0.722929,-0.120458 -1.401902,0.364563 -1.52236,1.087492 -0.120458,0.722929 0.364563,1.401901 1.087492,1.522359 l 5.219703,0.869735 -0.869734,5.219703 c -0.120458,0.722928 0.364562,1.401901 1.087491,1.522359 0.722929,0.120458 1.401902,-0.364563 1.52236,-1.087491 l 0.869735,-5.219704 5.219702,0.869735 c 0.722929,0.120458 1.401901,-0.364563 1.52236,-1.087492 0.120458,-0.722929 -0.364564,-1.401901 -1.087493,-1.522359 l -5.219702,-0.869735 1.087168,-6.524629 5.219702,0.869735 c 0.722929,0.120458 1.401902,-0.364563 1.52236,-1.087492 0.120458,-0.722929 -0.364563,-1.401901 -1.087492,-1.522359 l -5.219702,-0.869735 0.869734,-5.219703 C 70.17766,26.34765 69.692639,25.668677 68.96971,25.548219 Z" />
  </g>
</svg>
