<?xml version="1.0" encoding="UTF-8" standalone="no"?>
<!-- Created with Inkscape (http://www.inkscape.org/) -->

<svg
   width="60"
   height="60"
   viewBox="0 0 15.875 15.875"
   version="1.1"
   id="svg7731"
   sodipodi:docname="precedant.svg"
   inkscape:version="1.1.2 (0a00cf5339, 2022-02-04, custom)"
   xmlns:inkscape="http://www.inkscape.org/namespaces/inkscape"
   xmlns:sodipodi="http://sodipodi.sourceforge.net/DTD/sodipodi-0.dtd"
   xmlns="http://www.w3.org/2000/svg"
   xmlns:svg="http://www.w3.org/2000/svg">
  <sodipodi:namedview
     id="namedview7733"
     pagecolor="#ffffff"
     bordercolor="#666666"
     borderopacity="1.0"
     inkscape:pageshadow="2"
     inkscape:pageopacity="0.0"
     inkscape:pagecheckerboard="0"
     inkscape:document-units="mm"
     showgrid="false"
     units="px"
     inkscape:zoom="8"
     inkscape:cx="14.5625"
     inkscape:cy="34.375"
     inkscape:window-width="1600"
     inkscape:window-height="837"
     inkscape:window-x="-8"
     inkscape:window-y="-8"
     inkscape:window-maximized="1"
     inkscape:current-layer="layer1" />
  <defs
     id="defs7728" />
  <g
     inkscape:label="Calque 1"
     inkscape:groupmode="layer"
     id="layer1">
    <path
       id="path844-0"
       style="fill:#fffafe;fill-opacity:1;stroke-width:0.49999"
       d="m 9.7828464,15.873798 a 0.33071563,0.33072834 0 0 0 0.2097963,-0.09819 0.33071563,0.33072834 0 0 0 0.092496,-0.231513 h 0.0021 V 8.2679648 7.6064981 0.33088123 h -0.0021 A 0.33071563,0.33072834 0 0 0 9.9895419,0.0962672 0.33071563,0.33072834 0 0 0 9.5224091,0.0967842 l -0.0031,0.0031004 -3.6362975,3.6359999 a 0.33071563,0.33072834 0 0 0 -0.09508,0.2216946 0.33071563,0.33072834 0 0 0 0.097664,0.2454663 0.33071563,0.33072834 0 0 0 0.0062,0.00568 L 6.118645,4.4355921 9.4257793,7.7434424 c 0.096269,0.096289 0.096837,0.2905151 0,0.3870615 L 6.1444818,11.411998 c -0.00632,0.0066 -0.02532,0.02636 -0.02532,0.02636 v -10e-4 l -0.2361499,0.236164 a 0.33071563,0.33072834 0 0 0 -0.09508,0.221695 0.33071563,0.33072834 0 0 0 0.097664,0.245466 0.33071563,0.33072834 0 0 0 0.0062,0.0057 l 3.6306133,3.631349 0.0031,0.0031 a 0.33071563,0.33072834 0 0 0 0.1979114,0.0925 0.33071563,0.33072834 0 0 0 0.059425,5.16e-4 z M 9.4257793,14.745688 6.5862944,11.906032 9.4257793,9.065859 Z m 0,-7.9376008 L 6.5862944,3.9684313 9.4257793,1.1287754 Z" />
  </g>
</svg>
